<svg width="20" height="33" viewBox="0 0 20 33" fill="none" xmlns="http://www.w3.org/2000/svg">
<path d="M9.7749 1.50293C14.0915 1.50293 17.4954 5.4595 17.4956 9.82031V10.1689L17.23 10.3936L10.2593 16.292L9.7749 16.7021L9.29053 16.292L2.3208 10.3936L2.05518 10.1689V9.82031C2.05542 5.45961 5.45835 1.503 9.7749 1.50293Z" stroke="#E4E3E5" stroke-width="1.5"/>
<path d="M18.4199 9.69336L17.0791 23.79L17.0361 24.2422H2.45703L2.41406 23.79L1.05273 9.69434L1 9.14648H6.94141C6.89723 9.34712 6.87207 9.55562 6.87207 9.76953C6.87228 11.3623 8.16403 12.6533 9.75684 12.6533C11.3495 12.6532 12.6404 11.3622 12.6406 9.76953C12.6406 9.55559 12.6155 9.34715 12.5713 9.14648L18.4717 9.14648L18.4199 9.69336Z" fill="black"/>
<path d="M18.4199 9.69336L19.1666 9.76438L19.1666 9.76403L18.4199 9.69336ZM17.0791 23.79L16.3325 23.719L16.3325 23.7191L17.0791 23.79ZM17.0361 24.2422V24.9922H17.7182L17.7828 24.3131L17.0361 24.2422ZM2.45703 24.2422L1.7104 24.3131L1.77493 24.9922H2.45703V24.2422ZM2.41406 23.79L3.1607 23.7191L3.16059 23.7179L2.41406 23.79ZM1.05273 9.69434L0.306185 9.7662L0.306208 9.76643L1.05273 9.69434ZM1 9.14648V8.39648H0.174341L0.253451 9.21834L1 9.14648ZM6.94141 9.14648L7.67386 9.30776L7.87451 8.39648H6.94141V9.14648ZM6.87207 9.76953H6.12207V9.76963L6.87207 9.76953ZM9.75684 12.6533V13.4033H9.75691L9.75684 12.6533ZM12.6406 9.76953L13.3906 9.76963V9.76953H12.6406ZM12.5713 9.14648V8.39648H11.6382L11.8388 9.30778L12.5713 9.14648ZM18.4717 9.14648L19.2183 9.21715L19.296 8.39648H18.4717V9.14648ZM18.4199 9.69336L17.6733 9.62234L16.3325 23.719L17.0791 23.79L17.8257 23.8611L19.1666 9.76438L18.4199 9.69336ZM17.0791 23.79L16.3325 23.7191L16.2895 24.1712L17.0361 24.2422L17.7828 24.3131L17.8257 23.861L17.0791 23.79ZM17.0361 24.2422V23.4922H2.45703V24.2422V24.9922H17.0361V24.2422ZM2.45703 24.2422L3.20367 24.1712L3.1607 23.7191L2.41406 23.79L1.66743 23.861L1.7104 24.3131L2.45703 24.2422ZM2.41406 23.79L3.16059 23.7179L1.79926 9.62224L1.05273 9.69434L0.306208 9.76643L1.66754 23.8621L2.41406 23.79ZM1.05273 9.69434L1.79928 9.62248L1.74655 9.07462L1 9.14648L0.253451 9.21834L0.306185 9.7662L1.05273 9.69434ZM1 9.14648V9.89648H6.94141V9.14648V8.39648H1V9.14648ZM6.94141 9.14648L6.20895 8.98521C6.15417 9.23401 6.12207 9.49667 6.12207 9.76953H6.87207H7.62207C7.62207 9.61456 7.64029 9.46024 7.67386 9.30776L6.94141 9.14648ZM6.87207 9.76953L6.12207 9.76963C6.12234 11.7768 7.75004 13.4033 9.75684 13.4033V12.6533V11.9033C8.57801 11.9033 7.62223 10.9478 7.62207 9.76943L6.87207 9.76953ZM9.75684 12.6533L9.75691 13.4033C11.7638 13.4031 13.3904 11.7764 13.3906 9.76963L12.6406 9.76953L11.8906 9.76943C11.8905 10.948 10.9353 11.9032 9.75676 11.9033L9.75684 12.6533ZM12.6406 9.76953H13.3906C13.3906 9.49666 13.3585 9.23404 13.3037 8.98519L12.5713 9.14648L11.8388 9.30778C11.8724 9.46026 11.8906 9.61452 11.8906 9.76953H12.6406ZM12.5713 9.14648V9.89648L18.4717 9.89648V9.14648V8.39648L12.5713 8.39648V9.14648ZM18.4717 9.14648L17.725 9.07582L17.6733 9.62269L18.4199 9.69336L19.1666 9.76403L19.2183 9.21715L18.4717 9.14648Z" fill="#E4E3E5"/>
<circle cx="9.73485" cy="9.39549" r="0.606235" fill="#E4E3E5" stroke="#E4E3E5" stroke-width="0.4"/>
<circle cx="13.4062" cy="6.59276" r="0.606235" fill="#E4E3E5" stroke="#E4E3E5" stroke-width="0.4"/>
<circle cx="5.90624" cy="6.59276" r="0.606235" fill="#E4E3E5" stroke="#E4E3E5" stroke-width="0.4"/>
<circle cx="9.69432" cy="5.59276" r="0.606235" fill="#E4E3E5" stroke="#E4E3E5" stroke-width="0.4"/>
<path d="M14.0005 18.7471V31.7471" stroke="#E4E3E5" stroke-width="1.5" stroke-linecap="round"/>
<path d="M10.0005 16.7471V29.7471" stroke="#E4E3E5" stroke-width="1.5" stroke-linecap="round"/>
<path d="M6.00049 18.7471V31.7471" stroke="#E4E3E5" stroke-width="1.5" stroke-linecap="round"/>
</svg>
