<svg width="174" height="33" viewBox="0 0 174 33" fill="none" xmlns="http://www.w3.org/2000/svg">
<path d="M9.7749 1.50293C14.0915 1.50293 17.4954 5.4595 17.4956 9.82031V10.1689L17.23 10.3936L10.2593 16.292L9.7749 16.7021L9.29053 16.292L2.3208 10.3936L2.05518 10.1689V9.82031C2.05542 5.45961 5.45835 1.503 9.7749 1.50293Z" stroke="#E4E3E5" stroke-width="1.5"/>
<path d="M18.4199 9.69336L17.0791 23.79L17.0361 24.2422H2.45703L2.41406 23.79L1.05273 9.69434L1 9.14648H6.94141C6.89723 9.34712 6.87207 9.55562 6.87207 9.76953C6.87228 11.3623 8.16403 12.6533 9.75684 12.6533C11.3495 12.6532 12.6404 11.3622 12.6406 9.76953C12.6406 9.55559 12.6155 9.34715 12.5713 9.14648L18.4717 9.14648L18.4199 9.69336Z" fill="black"/>
<path d="M18.4199 9.69336L19.1666 9.76438L19.1666 9.76403L18.4199 9.69336ZM17.0791 23.79L16.3325 23.719L16.3325 23.7191L17.0791 23.79ZM17.0361 24.2422V24.9922H17.7182L17.7828 24.3131L17.0361 24.2422ZM2.45703 24.2422L1.7104 24.3131L1.77493 24.9922H2.45703V24.2422ZM2.41406 23.79L3.1607 23.7191L3.16059 23.7179L2.41406 23.79ZM1.05273 9.69434L0.306185 9.7662L0.306208 9.76643L1.05273 9.69434ZM1 9.14648V8.39648H0.174341L0.253451 9.21834L1 9.14648ZM6.94141 9.14648L7.67386 9.30776L7.87451 8.39648H6.94141V9.14648ZM6.87207 9.76953H6.12207V9.76963L6.87207 9.76953ZM9.75684 12.6533V13.4033H9.75691L9.75684 12.6533ZM12.6406 9.76953L13.3906 9.76963V9.76953H12.6406ZM12.5713 9.14648V8.39648H11.6382L11.8388 9.30778L12.5713 9.14648ZM18.4717 9.14648L19.2183 9.21715L19.296 8.39648H18.4717V9.14648ZM18.4199 9.69336L17.6733 9.62234L16.3325 23.719L17.0791 23.79L17.8257 23.8611L19.1666 9.76438L18.4199 9.69336ZM17.0791 23.79L16.3325 23.7191L16.2895 24.1712L17.0361 24.2422L17.7828 24.3131L17.8257 23.861L17.0791 23.79ZM17.0361 24.2422V23.4922H2.45703V24.2422V24.9922H17.0361V24.2422ZM2.45703 24.2422L3.20367 24.1712L3.1607 23.7191L2.41406 23.79L1.66743 23.861L1.7104 24.3131L2.45703 24.2422ZM2.41406 23.79L3.16059 23.7179L1.79926 9.62224L1.05273 9.69434L0.306208 9.76643L1.66754 23.8621L2.41406 23.79ZM1.05273 9.69434L1.79928 9.62248L1.74655 9.07462L1 9.14648L0.253451 9.21834L0.306185 9.7662L1.05273 9.69434ZM1 9.14648V9.89648H6.94141V9.14648V8.39648H1V9.14648ZM6.94141 9.14648L6.20895 8.98521C6.15417 9.23401 6.12207 9.49667 6.12207 9.76953H6.87207H7.62207C7.62207 9.61456 7.64029 9.46024 7.67386 9.30776L6.94141 9.14648ZM6.87207 9.76953L6.12207 9.76963C6.12234 11.7768 7.75004 13.4033 9.75684 13.4033V12.6533V11.9033C8.57801 11.9033 7.62223 10.9478 7.62207 9.76943L6.87207 9.76953ZM9.75684 12.6533L9.75691 13.4033C11.7638 13.4031 13.3904 11.7764 13.3906 9.76963L12.6406 9.76953L11.8906 9.76943C11.8905 10.948 10.9353 11.9032 9.75676 11.9033L9.75684 12.6533ZM12.6406 9.76953H13.3906C13.3906 9.49666 13.3585 9.23404 13.3037 8.98519L12.5713 9.14648L11.8388 9.30778C11.8724 9.46026 11.8906 9.61452 11.8906 9.76953H12.6406ZM12.5713 9.14648V9.89648L18.4717 9.89648V9.14648V8.39648L12.5713 8.39648V9.14648ZM18.4717 9.14648L17.725 9.07582L17.6733 9.62269L18.4199 9.69336L19.1666 9.76403L19.2183 9.21715L18.4717 9.14648Z" fill="#E4E3E5"/>
<circle cx="9.73485" cy="9.39549" r="0.606235" fill="#E4E3E5" stroke="#E4E3E5" stroke-width="0.4"/>
<circle cx="13.4062" cy="6.59276" r="0.606235" fill="#E4E3E5" stroke="#E4E3E5" stroke-width="0.4"/>
<circle cx="5.90624" cy="6.59276" r="0.606235" fill="#E4E3E5" stroke="#E4E3E5" stroke-width="0.4"/>
<circle cx="9.69432" cy="5.59276" r="0.606235" fill="#E4E3E5" stroke="#E4E3E5" stroke-width="0.4"/>
<path d="M14.0005 18.7471V31.7471" stroke="#E4E3E5" stroke-width="1.5" stroke-linecap="round"/>
<path d="M10.0005 16.7471V29.7471" stroke="#E4E3E5" stroke-width="1.5" stroke-linecap="round"/>
<path d="M6.00049 18.7471V31.7471" stroke="#E4E3E5" stroke-width="1.5" stroke-linecap="round"/>
<path d="M28.9717 24.166C28.1904 24.166 27.7119 23.6875 27.7119 22.8574V11.0508C27.7119 10.2207 28.1904 9.74219 28.9717 9.74219C29.7627 9.74219 30.2314 10.2207 30.2314 11.0508V15.7676H37.0869V11.0508C37.0869 10.2207 37.5557 9.74219 38.3369 9.74219C39.1279 9.74219 39.5967 10.2207 39.5967 11.0508V22.8574C39.5967 23.6875 39.1279 24.166 38.3369 24.166C37.5557 24.166 37.0869 23.6875 37.0869 22.8574V17.8867H30.2314V22.8574C30.2314 23.6875 29.7627 24.166 28.9717 24.166ZM44.626 24.166C42.624 24.166 41.1689 22.9062 41.1689 21.041C41.1689 19.2051 42.585 18.1016 45.1045 17.9453L47.8486 17.7891V17.0469C47.8486 15.9629 47.1162 15.3379 45.915 15.3379C44.9678 15.3379 44.3525 15.6602 43.7471 16.5488C43.4932 16.8809 43.1709 17.0371 42.7607 17.0371C42.165 17.0371 41.7354 16.6465 41.7354 16.0605C41.7354 15.8359 41.7939 15.6211 41.9014 15.3965C42.4287 14.1953 44.0303 13.4336 46.0127 13.4336C48.5811 13.4336 50.251 14.791 50.251 16.8711V22.9746C50.251 23.7559 49.7529 24.1953 49.0693 24.1953C48.4053 24.1953 47.9463 23.7949 47.9072 23.0723V22.3496H47.8584C47.2627 23.4727 45.9639 24.166 44.626 24.166ZM45.3682 22.3301C46.7354 22.3301 47.8486 21.4121 47.8486 20.1621V19.3711L45.4463 19.5176C44.2744 19.5957 43.6006 20.123 43.6006 20.9434C43.6006 21.793 44.3135 22.3301 45.3682 22.3301ZM56.208 24.2051C54.0205 24.2051 52.4873 23.3652 51.9893 22.125C51.9209 21.9492 51.8916 21.793 51.8916 21.6465C51.8916 21.0605 52.3213 20.6895 52.9072 20.6895C53.3076 20.6895 53.6494 20.875 53.9619 21.2852C54.5088 22.0762 55.1338 22.4277 56.2959 22.4277C57.4287 22.4277 58.1807 21.9492 58.1807 21.168C58.1807 20.543 57.79 20.2012 56.7256 19.957L55.0459 19.5762C53.0244 19.1172 52.0283 18.1211 52.0283 16.6172C52.0283 14.6934 53.6885 13.4336 56.2471 13.4336C58.2393 13.4336 59.7822 14.4102 60.1045 15.6016C60.1338 15.7285 60.1533 15.8457 60.1533 15.9629C60.1533 16.4707 59.8311 16.832 59.2158 16.832C58.8643 16.832 58.5127 16.7051 58.2881 16.3828C57.8096 15.6699 57.2139 15.2207 56.1885 15.2207C55.124 15.2207 54.3916 15.7383 54.3916 16.4805C54.3916 17.0859 54.8408 17.4961 55.915 17.7402L57.5654 18.1016C59.7529 18.5996 60.6221 19.3906 60.6221 20.9238C60.6221 22.9062 58.8447 24.2051 56.208 24.2051ZM63.4443 24.1953C62.7314 24.1953 62.2236 23.7363 62.2236 22.916V10.9629C62.2236 10.1914 62.6826 9.71289 63.4248 9.71289C64.1768 9.71289 64.626 10.1914 64.626 10.9629V15.4258H64.6748C65.2314 14.166 66.374 13.4531 67.9463 13.4531C70.2314 13.4531 71.5693 14.957 71.5693 17.3301V22.916C71.5693 23.7363 71.0615 24.1953 70.3486 24.1953C69.6357 24.1953 69.1377 23.7363 69.1377 22.916V17.8281C69.1377 16.3828 68.415 15.5137 67.0088 15.5137C65.5439 15.5137 64.6553 16.5293 64.6553 18.0527V22.916C64.6553 23.7363 64.1572 24.1953 63.4443 24.1953ZM75.0264 24C74.2451 24 73.7666 23.5117 73.7666 22.6914V11.2168C73.7666 10.3965 74.2451 9.9082 75.0264 9.9082H79.6162C82.1748 9.9082 83.8252 11.2852 83.8252 13.4238C83.8252 14.9375 82.7021 16.2559 81.2568 16.4902V16.5684C83.1709 16.7539 84.5088 18.1309 84.5088 19.9961C84.5088 22.4766 82.6826 24 79.6748 24H75.0264ZM76.2861 15.8457H78.5908C80.3486 15.8457 81.335 15.1035 81.335 13.7949C81.335 12.5645 80.4854 11.8711 78.9814 11.8711H76.2861V15.8457ZM76.2861 22.0371H79.0986C80.9541 22.0371 81.9404 21.2656 81.9404 19.8203C81.9404 18.3848 80.9248 17.6328 78.9912 17.6328H76.2861V22.0371ZM87.2725 24.1953C86.54 24.1953 86.0615 23.7168 86.0615 22.916V14.6738C86.0615 13.9121 86.5303 13.4434 87.2236 13.4434C87.8975 13.4434 88.376 13.9121 88.376 14.6738V15.4648H88.4248C88.708 14.2539 89.6064 13.4727 90.6416 13.4727C91.0225 13.4727 91.3154 13.5703 91.501 13.7363C91.7256 13.9219 91.8428 14.2148 91.8428 14.6152C91.8428 14.9961 91.7256 15.2793 91.4814 15.4746C91.2471 15.6797 90.8857 15.7871 90.4072 15.7969C89.0205 15.8066 88.4932 16.6758 88.4932 17.9355V22.916C88.4932 23.7168 88.0049 24.1953 87.2725 24.1953ZM97.126 24.2051C94.0889 24.2051 92.1162 22.1836 92.1162 18.8242C92.1162 15.4844 94.1084 13.4336 97.126 13.4336C100.144 13.4336 102.136 15.4746 102.136 18.8242C102.136 22.1836 100.163 24.2051 97.126 24.2051ZM97.126 22.2812C98.6689 22.2812 99.665 21.0312 99.665 18.8242C99.665 16.627 98.6689 15.3672 97.126 15.3672C95.5928 15.3672 94.5869 16.627 94.5869 18.8242C94.5869 21.0312 95.583 22.2812 97.126 22.2812ZM106.911 24.1953C106.091 24.1953 105.642 23.8145 105.388 22.9453L103.142 15.2109C103.063 14.9082 103.024 14.7031 103.024 14.4883C103.024 13.873 103.503 13.4434 104.196 13.4434C104.802 13.4434 105.183 13.7949 105.329 14.4688L107.048 21.5977H107.097L108.903 14.5566C109.069 13.834 109.548 13.4434 110.29 13.4434C111.022 13.4434 111.491 13.8242 111.657 14.5566L113.474 21.5977H113.532L115.251 14.459C115.397 13.7852 115.769 13.4434 116.364 13.4434C117.058 13.4434 117.526 13.8633 117.526 14.4785C117.526 14.6934 117.487 14.8984 117.399 15.1914L115.163 22.9453C114.919 23.7949 114.44 24.1953 113.62 24.1953C112.751 24.1953 112.282 23.8242 112.058 22.9355L110.28 16.4316H110.231L108.454 22.9453C108.249 23.7949 107.751 24.1953 106.911 24.1953ZM120.104 24.1953C119.392 24.1953 118.894 23.7363 118.894 22.916V14.6738C118.894 13.9219 119.333 13.4434 120.056 13.4434C120.769 13.4434 121.257 13.9219 121.257 14.6738V15.3965H121.306C121.862 14.166 122.937 13.4531 124.528 13.4531C126.813 13.4531 128.112 14.918 128.112 17.3105V22.916C128.112 23.7363 127.614 24.1953 126.901 24.1953C126.188 24.1953 125.681 23.7363 125.681 22.916V17.7988C125.681 16.334 124.997 15.5137 123.61 15.5137C122.214 15.5137 121.325 16.5195 121.325 18.0039V22.916C121.325 23.7363 120.817 24.1953 120.104 24.1953ZM136.413 24.2344C132.341 24.2344 129.831 21.4707 129.831 16.9492C129.831 12.457 132.38 9.67383 136.364 9.67383C138.972 9.67383 141.032 10.8945 141.96 12.9551C142.116 13.2773 142.194 13.6094 142.194 13.9023C142.194 14.5762 141.755 15.0059 141.081 15.0059C140.505 15.0059 140.124 14.7324 139.851 14.1172C139.196 12.6035 137.917 11.8125 136.384 11.8125C133.962 11.8125 132.409 13.8047 132.409 16.9492C132.409 20.1133 133.952 22.0957 136.394 22.0957C138.005 22.0957 139.245 21.3926 139.89 19.9082C140.144 19.332 140.466 19.0977 141.013 19.0977C141.706 19.0977 142.185 19.5566 142.185 20.2207C142.185 20.543 142.106 20.8359 141.95 21.168C141.052 23.082 139.05 24.2344 136.413 24.2344ZM148.708 24.2051C145.671 24.2051 143.698 22.1836 143.698 18.8242C143.698 15.4844 145.69 13.4336 148.708 13.4336C151.726 13.4336 153.718 15.4746 153.718 18.8242C153.718 22.1836 151.745 24.2051 148.708 24.2051ZM148.708 22.2812C150.251 22.2812 151.247 21.0312 151.247 18.8242C151.247 16.627 150.251 15.3672 148.708 15.3672C147.175 15.3672 146.169 16.627 146.169 18.8242C146.169 21.0312 147.165 22.2812 148.708 22.2812ZM156.491 24.1953C155.759 24.1953 155.28 23.7168 155.28 22.916V14.6738C155.28 13.9121 155.749 13.4434 156.442 13.4434C157.116 13.4434 157.595 13.9121 157.595 14.6738V15.4648H157.644C157.927 14.2539 158.825 13.4727 159.86 13.4727C160.241 13.4727 160.534 13.5703 160.72 13.7363C160.944 13.9219 161.062 14.2148 161.062 14.6152C161.062 14.9961 160.944 15.2793 160.7 15.4746C160.466 15.6797 160.104 15.7871 159.626 15.7969C158.239 15.8066 157.712 16.6758 157.712 17.9355V22.916C157.712 23.7168 157.224 24.1953 156.491 24.1953ZM163.366 27.6816C162.653 27.6816 162.155 27.2227 162.155 26.4023V14.6934C162.155 13.8926 162.644 13.4434 163.337 13.4434C164.03 13.4434 164.528 13.8926 164.528 14.6934V15.4355H164.577C165.163 14.2344 166.335 13.4727 167.839 13.4727C170.466 13.4727 172.136 15.5137 172.136 18.8242C172.136 22.125 170.476 24.166 167.878 24.166C166.374 24.166 165.202 23.4434 164.636 22.2812H164.587V26.4023C164.587 27.2227 164.079 27.6816 163.366 27.6816ZM167.097 22.1738C168.669 22.1738 169.646 20.875 169.646 18.8242C169.646 16.7832 168.669 15.4746 167.097 15.4746C165.583 15.4746 164.577 16.8125 164.567 18.8242C164.577 20.8555 165.583 22.1738 167.097 22.1738Z" fill="#E4E3E5"/>
</svg>
